<?xml version="1.0" encoding="utf-8"?>
<!-- Generator: Fusion 360, Shaper Origin Export Add-In, Version 1.6.10  -->
<svg xmlns="http://www.w3.org/2000/svg" xmlns:xlink="http://www.w3.org/1999/xlink" xmlns:shaper="http://www.shapertools.com/namespaces/shaper" shaper:fusionaddin="version:1.6.10" width="15.6000001cm" height="15.6cm" version="1.1" x="0cm" y="0cm" viewBox="0 0 15.6000001 15.6" enable-background="new 0 0 15.6000001 15.6" xml:space="preserve"><path d="M7.2000001,2.03 L7.8000001,2.03 7.8000001,5.03 7.2000001,5.03 7.2000001,7.43 4.8000001,7.43 4.8000001,8.03 1.8000001,8.03 1.8000001,7.43 -1.7999999,7.43 -1.7999999,8.03 -4.7999999,8.03 -4.7999999,7.43 -7.1999999,7.43 -7.1999999,5.03 -7.8000001,5.03 -7.7999999,2.03 -7.1999999,2.03 -7.1999999,-1.57 -7.8000001,-1.57 -7.7999999,-4.57 -7.1999999,-4.57 -7.1999999,-6.97 -4.7999999,-6.97 -4.7999999,-7.57 -1.7999999,-7.57 -1.7999999,-6.97 1.8000001,-6.97 1.8000001,-7.57 4.8000001,-7.57 4.8000001,-6.97 7.2000001,-6.97 7.2000001,-4.57 7.8000001,-4.57 7.8000001,-1.57 7.2000001,-1.57 7.2000001,2.03z" transform="matrix(1,0,0,-1,7.8000001,8.03)" fill="rgb(0,0,0)" shaper:cutDepth="0.006" stroke-linecap="round" stroke-linejoin="round" /><path d="M-6.1499999,6.93 A0.1,0.1 270 0,1 -6.0499999,7.03 L-6.0499999,7.08 A0.1,0.1 0 0,1 -6.1499999,7.18 L-6.4499999,7.18 A0.1,0.1 90 0,1 -6.5499999,7.08 L-6.5499999,7.03 A0.1,0.1 180 0,1 -6.4499999,6.93 L-6.1499999,6.93z" transform="matrix(1,0,0,-1,7.8000001,8.03)" fill="rgb(255,255,255)" stroke="rgb(0,0,0)" stroke-width="0.0010cm" stroke-linecap="round" stroke-linejoin="round" shaper:cutDepth="0.006" /><path d="M-6.1499999,-6.72 A0.1,0.1 270 0,1 -6.0499999,-6.62 L-6.0499999,-6.57 A0.1,0.1 0 0,1 -6.1499999,-6.47 L-6.4499999,-6.47 A0.1,0.1 90 0,1 -6.5499999,-6.57 L-6.5499999,-6.62 A0.1,0.1 180 0,1 -6.4499999,-6.72 L-6.1499999,-6.72z" transform="matrix(1,0,0,-1,7.8000001,8.03)" fill="rgb(255,255,255)" stroke="rgb(0,0,0)" stroke-width="0.0010cm" stroke-linecap="round" stroke-linejoin="round" shaper:cutDepth="0.006" /><path d="M6.2129565,0.53 L5.6129565,0.53 5.6129565,-0.07 6.2129565,-0.07 6.2129565,0.53z" transform="matrix(1,0,0,-1,7.8000001,8.03)" fill="rgb(255,255,255)" stroke="rgb(0,0,0)" stroke-width="0.0010cm" stroke-linecap="round" stroke-linejoin="round" shaper:cutDepth="0.006" /><path d="M5.0129565,0.48 L4.5129565,0.48 4.5129565,-0.02 5.0129565,-0.02 5.0129565,0.48z" transform="matrix(1,0,0,-1,7.8000001,8.03)" fill="rgb(255,255,255)" stroke="rgb(0,0,0)" stroke-width="0.0010cm" stroke-linecap="round" stroke-linejoin="round" shaper:cutDepth="0.006" /><path d="M1.5000001,2.36 L1.5000001,2.96 -1.4999999,2.96 -1.4999999,2.36 1.5000001,2.36z" transform="matrix(1,0,0,-1,7.8000001,8.03)" fill="rgb(255,255,255)" stroke="rgb(0,0,0)" stroke-width="0.0010cm" stroke-linecap="round" stroke-linejoin="round" shaper:cutDepth="0.006" /><path d="M-1.4999999,-1.9 L-1.4999999,-2.5 1.5000001,-2.5 1.5000001,-1.9 -1.4999999,-1.9z" transform="matrix(1,0,0,-1,7.8000001,8.03)" fill="rgb(255,255,255)" stroke="rgb(0,0,0)" stroke-width="0.0010cm" stroke-linecap="round" stroke-linejoin="round" shaper:cutDepth="0.006" /><path d="M1.8677058,0.83 L1.8677058,0.39 -1.8677057,0.39 -1.8677057,0.83 -3.5129564,0.83 -3.5129564,-0.37 -1.8677057,-0.37 -1.8677057,0.07 1.8677058,0.07 1.8677058,-0.37 3.5129565,-0.37 3.5129565,0.83 1.8677058,0.83z" transform="matrix(1,0,0,-1,7.8000001,8.03)" fill="rgb(255,255,255)" stroke="rgb(0,0,0)" stroke-width="0.0010cm" stroke-linecap="round" stroke-linejoin="round" shaper:cutDepth="0.006" /><path d="M2.0000001,1.53 L2.0000001,2.13 -1.9999999,2.13 -1.9999999,1.53 2.0000001,1.53z" transform="matrix(1,0,0,-1,7.8000001,8.03)" fill="rgb(255,255,255)" stroke="rgb(0,0,0)" stroke-width="0.0010cm" stroke-linecap="round" stroke-linejoin="round" shaper:cutDepth="0.006" /></svg>