<?xml version="1.0" encoding="utf-8"?>
<!-- Generator: Fusion 360, Shaper Origin Export Add-In, Version 1.6.10  -->
<svg xmlns="http://www.w3.org/2000/svg" xmlns:xlink="http://www.w3.org/1999/xlink" xmlns:shaper="http://www.shapertools.com/namespaces/shaper" shaper:fusionaddin="version:1.6.10" width="15.6000001cm" height="15.6000001cm" version="1.1" x="0cm" y="0cm" viewBox="0 0 15.6000001 15.6000001" enable-background="new 0 0 15.6000001 15.6000001" xml:space="preserve"><path d="M-4.8000001,7.2000001 L-1.8000001,7.2000001 -1.8000001,7.8000001 1.7999999,7.8000001 1.7999999,7.2000001 4.7999999,7.2000001 4.7999999,7.8000001 7.8000001,7.8000001 7.8000001,4.8000001 7.1999999,4.8000001 7.1999999,1.8000001 7.7999999,1.8000001 7.8000001,-1.7999999 7.1999999,-1.7999999 7.1999999,-4.7999999 7.7999999,-4.7999999 7.8000001,-7.8000001 4.7999999,-7.8000001 4.7999999,-7.1999999 1.7999999,-7.1999999 1.7999999,-7.7999999 -1.8000001,-7.8000001 -1.8000001,-7.1999999 -4.8000001,-7.1999999 -4.8000001,-7.7999999 -7.8000001,-7.8000001 -7.8000001,-4.7999999 -7.2000001,-4.7999999 -7.2000001,-1.7999999 -7.8000001,-1.7999999 -7.8000001,1.8000001 -7.2000001,1.8000001 -7.2000001,4.8000001 -7.8000001,4.8000001 -7.8000001,7.8000001 -4.8000001,7.8000001 -4.8000001,7.2000001z" transform="matrix(1,0,0,-1,7.8000001,7.8000001)" fill="rgb(0,0,0)" shaper:cutDepth="0.006" stroke-linecap="round" stroke-linejoin="round" /><path d="M-2.0000001,1.9000001 L-2.0000001,1.3000001 1.9999999,1.3000001 1.9999999,1.9000001 -2.0000001,1.9000001z" transform="matrix(1,0,0,-1,7.8000001,7.8000001)" fill="rgb(255,255,255)" stroke="rgb(0,0,0)" stroke-width="0.0010cm" stroke-linecap="round" stroke-linejoin="round" shaper:cutDepth="0.006" /></svg>