<?xml version="1.0" encoding="utf-8"?>
<!-- Generator: Fusion 360, Shaper Origin Export Add-In, Version 1.6.10  -->
<svg xmlns="http://www.w3.org/2000/svg" xmlns:xlink="http://www.w3.org/1999/xlink" xmlns:shaper="http://www.shapertools.com/namespaces/shaper" shaper:fusionaddin="version:1.6.10" width="15.6cm" height="6.4cm" version="1.1" x="0cm" y="0cm" viewBox="0 0 15.6 6.4" enable-background="new 0 0 15.6 6.4" xml:space="preserve"><path d="M7.8,-1 L7.2,-1 7.2,-3.1999999 4.8,-3.1999999 4.8,-2.6 1.8,-2.6 1.8,-3.2 -1.8,-3.2 -1.8,-2.6 -4.8,-2.6 -4.8,-3.2 -7.2,-3.1999999 -7.2,-1 -7.8,-1 -7.8,1 -7.2,1 -7.2,2.6 -4.8,2.6 -4.8,3.2 -1.8,3.2 -1.8,2.6 1.8,2.6 1.8,3.2 4.8,3.2 4.8,2.6 7.2,2.6 7.2,1 7.8,1 7.8,-1z" transform="matrix(1,0,0,-1,7.8,3.2)" fill="rgb(0,0,0)" shaper:cutDepth="0.006" stroke-linecap="round" stroke-linejoin="round" /><path d="M4.99,-0.33 L4.99,-2.2 6.21,-2.2 6.21,-0.33 4.99,-0.33z" transform="matrix(1,0,0,-1,7.8,3.2)" fill="rgb(255,255,255)" stroke="rgb(0,0,0)" stroke-width="0.0010cm" stroke-linecap="round" stroke-linejoin="round" shaper:cutDepth="0.006" /><path d="M6.125,0.7654792 L6.125,1.2345208 A0.575,0.575 24.0706146 0,1 5.075,1.2345208 L5.075,0.7654792 A0.575,0.575 204.0706146 0,1 6.125,0.7654792z" transform="matrix(1,0,0,-1,7.8,3.2)" fill="rgb(255,255,255)" stroke="rgb(0,0,0)" stroke-width="0.0010cm" stroke-linecap="round" stroke-linejoin="round" shaper:cutDepth="0.006" /></svg>