<?xml version="1.0" encoding="utf-8"?>
<!-- Generator: Fusion 360, Shaper Origin Export Add-In, Version 1.6.10  -->
<svg xmlns="http://www.w3.org/2000/svg" xmlns:xlink="http://www.w3.org/1999/xlink" xmlns:shaper="http://www.shapertools.com/namespaces/shaper" shaper:fusionaddin="version:1.6.10" width="15.6000002cm" height="6.4cm" version="1.1" x="0cm" y="0cm" viewBox="0 0 15.6000002 6.4" enable-background="new 0 0 15.6000002 6.4" xml:space="preserve"><path d="M7.2,-2.6 L4.8,-2.6 4.8,-3.2 1.8,-3.2 1.8,-2.6 -1.8,-2.6 -1.8,-3.2 -4.8,-3.2 -4.8,-2.6 -7.2,-2.6 -7.2,-1 -7.8,-1 -7.8000001,1 -7.2,1 -7.2,3.1999999 -4.8,3.1999999 -4.8,2.6 -1.8,2.6 -1.8,3.2 1.8,3.1999999 1.8,2.6 4.8,2.6 4.8,3.2 7.2,3.1999999 7.2,1 7.8,1 7.8000001,-1 7.2,-1 7.2,-2.6z" transform="matrix(1,0,0,-1,7.8000001,3.2)" fill="rgb(0,0,0)" shaper:cutDepth="0.006" stroke-linecap="round" stroke-linejoin="round" /></svg>