<?xml version="1.0" encoding="utf-8"?>
<!-- Generator: Fusion 360, Shaper Origin Export Add-In, Version 1.6.10  -->
<svg xmlns="http://www.w3.org/2000/svg" xmlns:xlink="http://www.w3.org/1999/xlink" xmlns:shaper="http://www.shapertools.com/namespaces/shaper" shaper:fusionaddin="version:1.6.10" width="24.132cm" height="15.6cm" version="1.1" x="0cm" y="0cm" viewBox="0 0 24.132 15.6" enable-background="new 0 0 24.132 15.6" xml:space="preserve"><path d="M7.866,1.5 L-9.066,1.5 A3,3 90 0,1 -12.066,-1.5 L-12.066,-11.1 A3,3 180 0,1 -9.066,-14.1 L7.866,-14.1 7.866,-13.5 9.866,-13.5 9.866,-14.1 11.466,-14.1 11.466,-11.1 12.066,-11.1 12.066,-8.1 11.466,-8.1 11.466,-4.5 12.066,-4.5 12.066,-1.5 11.466,-1.5 11.466,1.5 9.866,1.5 9.866,0.9 7.866,0.9 7.866,1.5z" transform="matrix(1,0,0,-1,12.066,1.5)" fill="rgb(0,0,0)" shaper:cutDepth="0.006" stroke-linecap="round" stroke-linejoin="round" /><path d="M-7.6322756,-0.0774603 L-8.3393824,0.6296465 -8.7636465,0.2053824 -8.0565397,-0.5017244 -7.6322756,-0.0774603z" transform="matrix(1,0,0,-1,12.066,1.5)" fill="rgb(255,255,255)" stroke="rgb(0,0,0)" stroke-width="0.0010cm" stroke-linecap="round" stroke-linejoin="round" shaper:cutDepth="0.006" /><path d="M-8.3393824,-13.2296465 L-7.6322756,-12.5225397 -8.0565397,-12.0982756 -8.7636465,-12.8053824 -8.3393824,-13.2296465z" transform="matrix(1,0,0,-1,12.066,1.5)" fill="rgb(255,255,255)" stroke="rgb(0,0,0)" stroke-width="0.0010cm" stroke-linecap="round" stroke-linejoin="round" shaper:cutDepth="0.006" /><path d="M-9.066,-11.1 L6.266,-11.1 6.266,-8.1 5.666,-8.1 5.666,-4.5 6.266,-4.5 6.266,-1.5 -9.066,-1.5 -9.066,-11.1z" transform="matrix(1,0,0,-1,12.066,1.5)" fill="rgb(255,255,255)" stroke="rgb(0,0,0)" stroke-width="0.0010cm" stroke-linecap="round" stroke-linejoin="round" shaper:cutDepth="0.006" /></svg>