<?xml version="1.0" encoding="utf-8"?>
<!-- Generator: Fusion 360, Shaper Origin Export Add-In, Version 1.6.10  -->
<svg xmlns="http://www.w3.org/2000/svg" xmlns:xlink="http://www.w3.org/1999/xlink" xmlns:shaper="http://www.shapertools.com/namespaces/shaper" shaper:fusionaddin="version:1.6.10" width="6.4cm" height="5.2cm" version="1.1" x="0cm" y="0cm" viewBox="0 0 6.4 5.2" enable-background="new 0 0 6.4 5.2" xml:space="preserve"><path d="M-2.6,3.85 L-2.6,4.45 2.6,4.45 2.6,3.85 3.2,3.85 3.2,-0.15 2.6,-0.15 2.6,-0.75 -2.6,-0.75 -2.6,-0.15 -3.2,-0.15 -3.2,3.85 -2.6,3.85z" transform="matrix(1,0,0,-1,3.2,4.45)" fill="rgb(0,0,0)" shaper:cutDepth="0.006" stroke-linecap="round" stroke-linejoin="round" /><path d="M-2.05,3.25 L-1.05,3.25 A0.15,0.15 270.0000003 0,1 -1.05,3.55 L-2.05,3.55 A0.15,0.15 90.0000003 1,1 -2.05,3.25z" transform="matrix(1,0,0,-1,3.2,4.45)" fill="rgb(255,255,255)" stroke="rgb(0,0,0)" stroke-width="0.0010cm" stroke-linecap="round" stroke-linejoin="round" shaper:cutDepth="0.006" /><path d="M2.05,3.55 L1.05,3.55 A0.15,0.15 90.0000003 0,1 1.05,3.25 L2.05,3.25 A0.15,0.15 270.0000003 1,1 2.05,3.55z" transform="matrix(1,0,0,-1,3.2,4.45)" fill="rgb(255,255,255)" stroke="rgb(0,0,0)" stroke-width="0.0010cm" stroke-linecap="round" stroke-linejoin="round" shaper:cutDepth="0.006" /><path d="M1.05,0.15 L2.05,0.15 A0.15,0.15 270.0000003 1,1 2.05,0.45 L1.05,0.45 A0.15,0.15 90.0000003 0,1 1.05,0.15z" transform="matrix(1,0,0,-1,3.2,4.45)" fill="rgb(255,255,255)" stroke="rgb(0,0,0)" stroke-width="0.0010cm" stroke-linecap="round" stroke-linejoin="round" shaper:cutDepth="0.006" /><path d="M-2.05,0.15 L-1.05,0.15 A0.15,0.15 270.0000003 0,1 -1.05,0.45 L-2.05,0.45 A0.15,0.15 90.0000003 0,1 -2.05,0.15z" transform="matrix(1,0,0,-1,3.2,4.45)" fill="rgb(255,255,255)" stroke="rgb(0,0,0)" stroke-width="0.0010cm" stroke-linecap="round" stroke-linejoin="round" shaper:cutDepth="0.006" /><path d="M0.5,2.95 L-0.5,2.95 A1.1,1.1 90.0000003 0,1 -0.5,0.75 L0.5,0.75 A1.1,1.1 270.0000003 0,1 0.5,2.95z" transform="matrix(1,0,0,-1,3.2,4.45)" fill="rgb(255,255,255)" stroke="rgb(0,0,0)" stroke-width="0.0010cm" stroke-linecap="round" stroke-linejoin="round" shaper:cutDepth="0.006" /></svg>