<?xml version="1.0" encoding="utf-8"?>
<!-- Generator: Fusion 360, Shaper Origin Export Add-In, Version 1.6.10  -->
<svg xmlns="http://www.w3.org/2000/svg" xmlns:xlink="http://www.w3.org/1999/xlink" xmlns:shaper="http://www.shapertools.com/namespaces/shaper" shaper:fusionaddin="version:1.6.10" width="14cm" height="14cm" version="1.1" x="0cm" y="0cm" viewBox="0 0 14 14" enable-background="new 0 0 14 14" xml:space="preserve"><path d="M-9.625,-0 a7,7 0 1,1 14,0 a7,7 0 1,1 -14,0z" transform="matrix(1,0,0,-1,9.625,7)" fill="rgb(0,0,0)" shaper:cutDepth="0.006" stroke-linecap="round" stroke-linejoin="round" /><path d="M-2.775,-2 a0.15,0.15 0 1,1 0.3,0 a0.15,0.15 0 1,1 -0.3,0z" transform="matrix(1,0,0,-1,9.625,7)" fill="rgb(255,255,255)" stroke="rgb(0,0,0)" stroke-width="0.0010cm" stroke-linecap="round" stroke-linejoin="round" shaper:cutDepth="0.006" /><path d="M-7.775,-0 a0.15,0.15 0 1,1 0.3,0 a0.15,0.15 0 1,1 -0.3,0z" transform="matrix(1,0,0,-1,9.625,7)" fill="rgb(255,255,255)" stroke="rgb(0,0,0)" stroke-width="0.0010cm" stroke-linecap="round" stroke-linejoin="round" shaper:cutDepth="0.006" /><path d="M-3.9516499,-0.4 A0.3,0.3 90 0,0 -3.6863199,-0.56 A1.2,1.2 207.8181393 0,1 -3.185,-1.0613199 A0.3,0.3 62.1818607 0,0 -3.025,-1.3266499 L-3.025,-4.64758 A0.3,0.3 0 0,0 -3.3696809,-4.9442341 A5,5 261.4347189 0,0 -7.5692341,-0.7446809 A0.3,0.3 188.5652811 0,0 -7.27258,-0.4 L-3.9516499,-0.4z" transform="matrix(1,0,0,-1,9.625,7)" fill="rgb(255,255,255)" stroke="rgb(0,0,0)" stroke-width="0.0010cm" stroke-linecap="round" stroke-linejoin="round" shaper:cutDepth="0.006" /><path d="M-4.775,-0 a0.15,0.15 0 1,1 0.3,0 a0.15,0.15 0 1,1 -0.3,0z" transform="matrix(1,0,0,-1,9.625,7)" fill="rgb(255,255,255)" stroke="rgb(0,0,0)" stroke-width="0.0010cm" stroke-linecap="round" stroke-linejoin="round" shaper:cutDepth="0.006" /><path d="M-3.025,-0 a0.4,0.4 0 1,1 0.8,0 a0.4,0.4 0 1,1 -0.8,0z" transform="matrix(1,0,0,-1,9.625,7)" fill="rgb(255,255,255)" stroke="rgb(0,0,0)" stroke-width="0.0010cm" stroke-linecap="round" stroke-linejoin="round" shaper:cutDepth="0.006" /><path d="M-2.225,-1.3266499 A0.3,0.3 180 0,0 -2.065,-1.0613199 A1.2,1.2 297.8181393 0,1 -1.5636801,-0.56 A0.3,0.3 152.1818607 0,0 -1.2983501,-0.4 L2.02258,-0.4 A0.3,0.3 90 0,0 2.3192341,-0.7446809 A5,5 351.4347189 0,0 -1.8803191,-4.9442341 A0.3,0.3 278.5652811 0,0 -2.225,-4.64758 L-2.225,-1.3266499z" transform="matrix(1,0,0,-1,9.625,7)" fill="rgb(255,255,255)" stroke="rgb(0,0,0)" stroke-width="0.0010cm" stroke-linecap="round" stroke-linejoin="round" shaper:cutDepth="0.006" /><path d="M-2.775,2 a0.15,0.15 0 1,1 0.3,0 a0.15,0.15 0 1,1 -0.3,0z" transform="matrix(1,0,0,-1,9.625,7)" fill="rgb(255,255,255)" stroke="rgb(0,0,0)" stroke-width="0.0010cm" stroke-linecap="round" stroke-linejoin="round" shaper:cutDepth="0.006" /><path d="M-2.775,5 a0.15,0.15 0 1,1 0.3,0 a0.15,0.15 0 1,1 -0.3,0z" transform="matrix(1,0,0,-1,9.625,7)" fill="rgb(255,255,255)" stroke="rgb(0,0,0)" stroke-width="0.0010cm" stroke-linecap="round" stroke-linejoin="round" shaper:cutDepth="0.006" /><path d="M-3.025,1.3266499 A0.3,0.3 0 0,0 -3.185,1.0613199 A1.2,1.2 117.8181393 0,1 -3.6863199,0.56 A0.3,0.3 332.1818607 0,0 -3.9516499,0.4 L-7.27258,0.4 A0.3,0.3 270 0,0 -7.5692341,0.7446809 A5,5 171.4347189 0,0 -3.3696809,4.9442341 A0.3,0.3 98.5652811 0,0 -3.025,4.64758 L-3.025,1.3266499z" transform="matrix(1,0,0,-1,9.625,7)" fill="rgb(255,255,255)" stroke="rgb(0,0,0)" stroke-width="0.0010cm" stroke-linecap="round" stroke-linejoin="round" shaper:cutDepth="0.006" /><path d="M-0.775,0 a0.15,0.15 0 1,1 0.3,0 a0.15,0.15 0 1,1 -0.3,0z" transform="matrix(1,0,0,-1,9.625,7)" fill="rgb(255,255,255)" stroke="rgb(0,0,0)" stroke-width="0.0010cm" stroke-linecap="round" stroke-linejoin="round" shaper:cutDepth="0.006" /><path d="M2.225,0 a0.15,0.15 0 1,1 0.3,0 a0.15,0.15 0 1,1 -0.3,0z" transform="matrix(1,0,0,-1,9.625,7)" fill="rgb(255,255,255)" stroke="rgb(0,0,0)" stroke-width="0.0010cm" stroke-linecap="round" stroke-linejoin="round" shaper:cutDepth="0.006" /><path d="M-1.2983501,0.4 A0.3,0.3 270 0,0 -1.5636801,0.56 A1.2,1.2 27.8181393 0,1 -2.065,1.0613199 A0.3,0.3 242.1818607 0,0 -2.225,1.3266499 L-2.225,4.64758 A0.3,0.3 180 0,0 -1.8803191,4.9442341 A5,5 81.4347189 0,0 2.3192341,0.7446809 A0.3,0.3 8.5652811 0,0 2.02258,0.4 L-1.2983501,0.4z" transform="matrix(1,0,0,-1,9.625,7)" fill="rgb(255,255,255)" stroke="rgb(0,0,0)" stroke-width="0.0010cm" stroke-linecap="round" stroke-linejoin="round" shaper:cutDepth="0.006" /><path d="M-2.775,-5 a0.15,0.15 0 1,1 0.3,0 a0.15,0.15 0 1,1 -0.3,0z" transform="matrix(1,0,0,-1,9.625,7)" fill="rgb(255,255,255)" stroke="rgb(0,0,0)" stroke-width="0.0010cm" stroke-linecap="round" stroke-linejoin="round" shaper:cutDepth="0.006" /></svg>