<?xml version="1.0" encoding="utf-8"?>
<!-- Generator: Fusion 360, Shaper Origin Export Add-In, Version 1.6.10  -->
<svg xmlns="http://www.w3.org/2000/svg" xmlns:xlink="http://www.w3.org/1999/xlink" xmlns:shaper="http://www.shapertools.com/namespaces/shaper" shaper:fusionaddin="version:1.6.10" width="11.4233632cm" height="11.4233632cm" version="1.1" x="0cm" y="0cm" viewBox="0 0 11.4233632 11.4233632" enable-background="new 0 0 11.4233632 11.4233632" xml:space="preserve"><path d="M-3.6208076,3.4090747 L-3.7460977,3.4674985 A0.06,0.06 65 0,1 -3.8114733,3.4578249 A5.714578,5.714578 131.8339217 0,1 -3.9094308,3.3680633 A0.06,0.06 133.1660783 0,1 -3.9247654,3.3037797 L-3.8774838,3.1738744 A0.03,0.03 20 0,0 -3.8846181,3.142245 A5.534578,5.534578 134.5781558 0,1 -3.942245,3.0846181 A0.03,0.03 315.4218442 0,0 -3.9738744,3.0774838 L-4.1037797,3.1247654 A0.06,0.06 70 0,1 -4.1680633,3.1094308 A5.714578,5.714578 136.8339217 0,1 -4.2578249,3.0114733 A0.06,0.06 138.1660783 0,1 -4.2674985,2.9460977 L-4.2090747,2.8208076 A0.03,0.03 25 0,0 -4.2134252,2.7886768 A5.534578,5.534578 139.5781558 0,1 -4.2658103,2.7262467 A0.03,0.03 320.4218442 0,0 -4.2966976,2.7163828 L-4.4302294,2.7521625 A0.06,0.06 75 0,1 -4.4929319,2.7312836 A5.714578,5.714578 141.8339217 0,1 -4.5738144,2.6258756 A0.06,0.06 143.1660783 0,1 -4.5777533,2.5599057 L-4.5086321,2.4401843 A0.03,0.03 30 0,0 -4.5101657,2.4077966 A5.534578,5.534578 144.5781558 0,1 -4.5569103,2.3410384 A0.03,0.03 325.4218442 0,0 -4.5868203,2.32852 L-4.7229624,2.3525256 A0.06,0.06 80 0,1 -4.7836066,2.3262612 A5.714578,5.714578 146.8339217 0,1 -4.8549943,2.2142049 A0.06,0.06 148.1660783 0,1 -4.8531686,2.1481428 L-4.7738761,2.0349012 A0.03,0.03 35 0,0 -4.772581,2.0025031 A5.534578,5.534578 149.5781558 0,1 -4.8133294,1.9319249 A0.03,0.03 330.4218442 0,0 -4.8420345,1.9168473 L-4.9797508,1.928896 A0.06,0.06 85 0,1 -5.0378752,1.897446 A5.714578,5.714578 151.8339217 0,1 -5.0992249,1.7795943 A0.06,0.06 153.1660783 0,1 -5.0916484,1.7139427 L-5.002788,1.6080429 A0.03,0.03 40 0,0 -4.9986741,1.5758809 A5.534578,5.534578 154.5781558 0,1 -5.0331161,1.5020198 A0.03,0.03 335.4218442 0,0 -5.060398,1.4844978 L-5.1986403,1.4844978 A0.06,0.06 90 0,1 -5.2538024,1.4481017 A5.714578,5.714578 156.8339217 0,1 -5.3046473,1.3253514 A0.06,0.06 158.1660783 0,1 -5.2913777,1.26061 L-5.1936256,1.1628578 A0.03,0.03 45 0,0 -5.1867243,1.1311768 A5.534578,5.534578 159.5781558 0,1 -5.2145979,1.0545949 A0.03,0.03 340.4218442 0,0 -5.2402487,1.0347618 L-5.377965,1.0227132 A0.06,0.06 95 0,1 -5.4297451,0.9816479 A5.714578,5.714578 161.8339217 0,1 -5.4696981,0.8549333 A0.06,0.06 163.1660783 0,1 -5.4508364,0.7915948 L-5.3449366,0.7027343 A0.03,0.03 50 0,0 -5.3353004,0.6717752 A5.534578,5.534578 164.5781558 0,1 -5.3563933,0.5930555 A0.03,0.03 345.4218442 0,0 -5.380218,0.5710623 L-5.5163602,0.5470567 A0.06,0.06 100 0,1 -5.5643641,0.5016347 A5.714578,5.714578 166.8339217 0,1 -5.5931211,0.3719202 A0.06,0.06 168.1660783 0,1 -5.568811,0.3104666 L-5.4555695,0.231174 A0.03,0.03 55 0,0 -5.4432717,0.2011726 A5.534578,5.534578 169.5781558 0,1 -5.4574234,0.120914 A0.03,0.03 350.4218442 0,0 -5.4792406,0.096928 L-5.6127725,0.0611483 A0.06,0.06 105 0,1 -5.656635,0.0117153 A5.714578,5.714578 171.8339217 0,1 -5.6739772,-0.1200119 A0.06,0.06 173.1660783 0,1 -5.6444035,-0.179113 L-5.5246821,-0.2482341 A0.03,0.03 60 0,0 -5.5098163,-0.2770495 A5.534578,5.534578 174.5781558 0,1 -5.5169192,-0.3582361 A0.03,0.03 355.4218442 0,0 -5.5365629,-0.3840323 L-5.6664682,-0.431314 A0.06,0.06 110 0,1 -5.7058554,-0.4843817 A5.714578,5.714578 176.8339217 0,1 -5.7116509,-0.6171192 A0.06,0.06 178.1660783 0,1 -5.6770387,-0.6734178 L-5.5517486,-0.7318415 A0.03,0.03 65 0,0 -5.5344279,-0.7592517 A5.534578,5.534578 179.5781558 0,1 -5.5344279,-0.8407483 A0.03,0.03 0.4218442 0,0 -5.5517486,-0.8681585 L-5.6770387,-0.9265822 A0.06,0.06 115 0,1 -5.7116509,-0.9828808 A5.714578,5.714578 181.8339217 0,1 -5.7058554,-1.1156183 A0.06,0.06 183.1660783 0,1 -5.6664682,-1.168686 L-5.5365629,-1.2159677 A0.03,0.03 70 0,0 -5.5169192,-1.2417639 A5.534578,5.534578 184.5781558 0,1 -5.5098163,-1.3229505 A0.03,0.03 5.4218442 0,0 -5.5246821,-1.3517659 L-5.6444035,-1.420887 A0.06,0.06 120 0,1 -5.6739772,-1.4799881 A5.714578,5.714578 186.8339217 0,1 -5.656635,-1.6117153 A0.06,0.06 188.1660783 0,1 -5.6127725,-1.6611483 L-5.4792406,-1.696928 A0.03,0.03 75 0,0 -5.4574234,-1.720914 A5.534578,5.534578 189.5781558 0,1 -5.4432717,-1.8011726 A0.03,0.03 10.4218442 0,0 -5.4555695,-1.831174 L-5.568811,-1.9104666 A0.06,0.06 125 0,1 -5.5931211,-1.9719202 A5.714578,5.714578 191.8339217 0,1 -5.5643641,-2.1016347 A0.06,0.06 193.1660783 0,1 -5.5163602,-2.1470567 L-5.380218,-2.1710623 A0.03,0.03 80 0,0 -5.3563933,-2.1930555 A5.534578,5.534578 194.5781558 0,1 -5.3353004,-2.2717752 A0.03,0.03 15.4218442 0,0 -5.3449366,-2.3027343 L-5.4508364,-2.3915948 A0.06,0.06 130 0,1 -5.4696981,-2.4549333 A5.714578,5.714578 196.8339217 0,1 -5.4297451,-2.5816479 A0.06,0.06 198.1660783 0,1 -5.377965,-2.6227132 L-5.2402487,-2.6347618 A0.03,0.03 85 0,0 -5.2145979,-2.6545949 A5.534578,5.534578 199.5781558 0,1 -5.1867243,-2.7311768 A0.03,0.03 20.4218442 0,0 -5.1936256,-2.7628578 L-5.2913777,-2.86061 A0.06,0.06 135 0,1 -5.3046473,-2.9253514 A5.714578,5.714578 201.8339217 0,1 -5.2538024,-3.0481017 A0.06,0.06 203.1660783 0,1 -5.1986403,-3.0844978 L-5.060398,-3.0844978 A0.03,0.03 90 0,0 -5.0331161,-3.1020198 A5.534578,5.534578 204.5781558 0,1 -4.9986741,-3.1758809 A0.03,0.03 25.4218442 0,0 -5.002788,-3.2080429 L-5.0916484,-3.3139427 A0.06,0.06 140 0,1 -5.0992249,-3.3795943 A5.714578,5.714578 206.8339217 0,1 -5.0378752,-3.497446 A0.06,0.06 208.1660783 0,1 -4.9797508,-3.528896 L-4.8420345,-3.5168473 A0.03,0.03 95 0,0 -4.8133294,-3.5319249 A5.534578,5.534578 209.5781558 0,1 -4.772581,-3.6025031 A0.03,0.03 30.4218442 0,0 -4.7738761,-3.6349012 L-4.8531686,-3.7481428 A0.06,0.06 145 0,1 -4.8549943,-3.8142049 A5.714578,5.714578 211.8339217 0,1 -4.7836066,-3.9262612 A0.06,0.06 213.1660783 0,1 -4.7229624,-3.9525256 L-4.5868203,-3.92852 A0.03,0.03 100 0,0 -4.5569103,-3.9410384 A5.534578,5.534578 214.5781558 0,1 -4.5101657,-4.0077966 A0.03,0.03 35.4218442 0,0 -4.5086321,-4.0401843 L-4.5777533,-4.1599057 A0.06,0.06 150 0,1 -4.5738144,-4.2258756 A5.714578,5.714578 216.8339217 0,1 -4.4929319,-4.3312836 A0.06,0.06 218.1660783 0,1 -4.4302294,-4.3521625 L-4.2966976,-4.3163828 A0.03,0.03 105 0,0 -4.2658103,-4.3262467 A5.534578,5.534578 219.5781558 0,1 -4.2134252,-4.3886768 A0.03,0.03 40.4218442 0,0 -4.2090747,-4.4208076 L-4.2674985,-4.5460977 A0.06,0.06 155 0,1 -4.2578249,-4.6114733 A5.714578,5.714578 221.8339217 0,1 -4.1680633,-4.7094308 A0.06,0.06 223.1660783 0,1 -4.1037797,-4.7247654 L-3.9738744,-4.6774838 A0.03,0.03 110 0,0 -3.942245,-4.6846181 A5.534578,5.534578 224.5781558 0,1 -3.8846181,-4.742245 A0.03,0.03 45.4218442 0,0 -3.8774838,-4.7738744 L-3.9247654,-4.9037797 A0.06,0.06 160 0,1 -3.9094308,-4.9680633 A5.714578,5.714578 226.8339217 0,1 -3.8114733,-5.0578249 A0.06,0.06 228.1660783 0,1 -3.7460977,-5.0674985 L-3.6208076,-5.0090747 A0.03,0.03 115 0,0 -3.5886768,-5.0134252 A5.534578,5.534578 229.5781558 0,1 -3.5262467,-5.0658103 A0.03,0.03 50.4218442 0,0 -3.5163828,-5.0966976 L-3.5521625,-5.2302294 A0.06,0.06 165 0,1 -3.5312836,-5.2929319 A5.714578,5.714578 231.8339217 0,1 -3.4258756,-5.3738144 A0.06,0.06 233.1660783 0,1 -3.3599057,-5.3777533 L-3.2401843,-5.3086321 A0.03,0.03 120 0,0 -3.2077966,-5.3101657 A5.534578,5.534578 234.5781558 0,1 -3.1410384,-5.3569103 A0.03,0.03 55.4218442 0,0 -3.12852,-5.3868203 L-3.1525256,-5.5229624 A0.06,0.06 170 0,1 -3.1262612,-5.5836066 A5.714578,5.714578 236.8339217 0,1 -3.0142049,-5.6549943 A0.06,0.06 238.1660783 0,1 -2.9481428,-5.6531686 L-2.8349012,-5.5738761 A0.03,0.03 125 0,0 -2.8025031,-5.572581 A5.534578,5.534578 239.5781558 0,1 -2.7319249,-5.6133294 A0.03,0.03 60.4218442 0,0 -2.7168473,-5.6420345 L-2.728896,-5.7797508 A0.06,0.06 175 0,1 -2.697446,-5.8378752 A5.714578,5.714578 241.8339217 0,1 -2.5795943,-5.8992249 A0.06,0.06 243.1660783 0,1 -2.5139427,-5.8916484 L-2.4080429,-5.802788 A0.03,0.03 130 0,0 -2.3758809,-5.7986741 A5.534578,5.534578 244.5781558 0,1 -2.3020198,-5.8331161 A0.03,0.03 65.4218442 0,0 -2.2844978,-5.860398 L-2.2844978,-5.9986403 A0.06,0.06 180 0,1 -2.2481017,-6.0538024 A5.714578,5.714578 246.8339217 0,1 -2.1253514,-6.1046473 A0.06,0.06 248.1660783 0,1 -2.06061,-6.0913777 L-1.9628578,-5.9936256 A0.03,0.03 135 0,0 -1.9311768,-5.9867243 A5.534578,5.534578 249.5781558 0,1 -1.8545949,-6.0145979 A0.03,0.03 70.4218442 0,0 -1.8347618,-6.0402487 L-1.8227132,-6.177965 A0.06,0.06 185 0,1 -1.7816479,-6.2297451 A5.714578,5.714578 251.8339217 0,1 -1.6549333,-6.2696981 A0.06,0.06 253.1660783 0,1 -1.5915948,-6.2508364 L-1.5027343,-6.1449366 A0.03,0.03 140 0,0 -1.4717752,-6.1353004 A5.534578,5.534578 254.5781558 0,1 -1.3930555,-6.1563933 A0.03,0.03 75.4218442 0,0 -1.3710623,-6.180218 L-1.3470567,-6.3163602 A0.06,0.06 190 0,1 -1.3016347,-6.3643641 A5.714578,5.714578 256.8339217 0,1 -1.1719202,-6.3931211 A0.06,0.06 258.1660783 0,1 -1.1104666,-6.368811 L-1.031174,-6.2555695 A0.03,0.03 145 0,0 -1.0011726,-6.2432717 A5.534578,5.534578 259.5781558 0,1 -0.920914,-6.2574234 A0.03,0.03 80.4218442 0,0 -0.896928,-6.2792406 L-0.8611483,-6.4127725 A0.06,0.06 195 0,1 -0.8117153,-6.456635 A5.714578,5.714578 261.8339217 0,1 -0.6799881,-6.4739772 A0.06,0.06 263.1660783 0,1 -0.620887,-6.4444035 L-0.5517659,-6.3246821 A0.03,0.03 150 0,0 -0.5229505,-6.3098163 A5.534578,5.534578 264.5781558 0,1 -0.4417639,-6.3169192 A0.03,0.03 85.4218442 0,0 -0.4159677,-6.3365629 L-0.368686,-6.4664682 A0.06,0.06 200 0,1 -0.3156183,-6.5058554 A5.714578,5.714578 266.8339217 0,1 -0.1828808,-6.5116509 A0.06,0.06 268.1660783 0,1 -0.1265822,-6.4770387 L-0.0681585,-6.3517486 A0.03,0.03 155 0,0 -0.0407483,-6.3344279 A5.534578,5.534578 269.5781558 0,1 0.0407483,-6.3344279 A0.03,0.03 90.4218442 0,0 0.0681585,-6.3517486 L0.1265822,-6.4770387 A0.06,0.06 205 0,1 0.1828808,-6.5116509 A5.714578,5.714578 271.8339217 0,1 0.3156183,-6.5058554 A0.06,0.06 273.1660783 0,1 0.368686,-6.4664682 L0.4159677,-6.3365629 A0.03,0.03 160 0,0 0.4417639,-6.3169192 A5.534578,5.534578 274.5781558 0,1 0.5229505,-6.3098163 A0.03,0.03 95.4218442 0,0 0.5517659,-6.3246821 L0.620887,-6.4444035 A0.06,0.06 210 0,1 0.6799881,-6.4739772 A5.714578,5.714578 276.8339217 0,1 0.8117153,-6.456635 A0.06,0.06 278.1660783 0,1 0.8611483,-6.4127725 L0.896928,-6.2792406 A0.03,0.03 165 0,0 0.920914,-6.2574234 A5.534578,5.534578 279.5781558 0,1 1.0011726,-6.2432717 A0.03,0.03 100.4218442 0,0 1.031174,-6.2555695 L1.1104666,-6.368811 A0.06,0.06 215 0,1 1.1719202,-6.3931211 A5.714578,5.714578 281.8339217 0,1 1.3016347,-6.3643641 A0.06,0.06 283.1660783 0,1 1.3470567,-6.3163602 L1.3710623,-6.180218 A0.03,0.03 170 0,0 1.3930555,-6.1563933 A5.534578,5.534578 284.5781558 0,1 1.4717752,-6.1353004 A0.03,0.03 105.4218442 0,0 1.5027343,-6.1449366 L1.5915948,-6.2508364 A0.06,0.06 220 0,1 1.6549333,-6.2696981 A5.714578,5.714578 286.8339217 0,1 1.7816479,-6.2297451 A0.06,0.06 288.1660783 0,1 1.8227132,-6.177965 L1.8347618,-6.0402487 A0.03,0.03 175 0,0 1.8545949,-6.0145979 A5.534578,5.534578 289.5781558 0,1 1.9311768,-5.9867243 A0.03,0.03 110.4218442 0,0 1.9628578,-5.9936256 L2.06061,-6.0913777 A0.06,0.06 225 0,1 2.1253514,-6.1046473 A5.714578,5.714578 291.8339217 0,1 2.2481017,-6.0538024 A0.06,0.06 293.1660783 0,1 2.2844978,-5.9986403 L2.2844978,-5.860398 A0.03,0.03 180 0,0 2.3020198,-5.8331161 A5.534578,5.534578 294.5781558 0,1 2.3758809,-5.7986741 A0.03,0.03 115.4218442 0,0 2.4080429,-5.802788 L2.5139427,-5.8916484 A0.06,0.06 230 0,1 2.5795943,-5.8992249 A5.714578,5.714578 296.8339217 0,1 2.697446,-5.8378752 A0.06,0.06 298.1660783 0,1 2.728896,-5.7797508 L2.7168473,-5.6420345 A0.03,0.03 185 0,0 2.7319249,-5.6133294 A5.534578,5.534578 299.5781558 0,1 2.8025031,-5.572581 A0.03,0.03 120.4218442 0,0 2.8349012,-5.5738761 L2.9481428,-5.6531686 A0.06,0.06 235 0,1 3.0142049,-5.6549943 A5.714578,5.714578 301.8339217 0,1 3.1262612,-5.5836066 A0.06,0.06 303.1660783 0,1 3.1525256,-5.5229624 L3.12852,-5.3868203 A0.03,0.03 190 0,0 3.1410384,-5.3569103 A5.534578,5.534578 304.5781558 0,1 3.2077966,-5.3101657 A0.03,0.03 125.4218442 0,0 3.2401843,-5.3086321 L3.3599057,-5.3777533 A0.06,0.06 240 0,1 3.4258756,-5.3738144 A5.714578,5.714578 306.8339217 0,1 3.5312836,-5.2929319 A0.06,0.06 308.1660783 0,1 3.5521625,-5.2302294 L3.5163828,-5.0966976 A0.03,0.03 195 0,0 3.5262467,-5.0658103 A5.534578,5.534578 309.5781558 0,1 3.5886768,-5.0134252 A0.03,0.03 130.4218442 0,0 3.6208076,-5.0090747 L3.7460977,-5.0674985 A0.06,0.06 245 0,1 3.8114733,-5.0578249 A5.714578,5.714578 311.8339217 0,1 3.9094308,-4.9680633 A0.06,0.06 313.1660783 0,1 3.9247654,-4.9037797 L3.8774838,-4.7738744 A0.03,0.03 200 0,0 3.8846181,-4.742245 A5.534578,5.534578 314.5781558 0,1 3.942245,-4.6846181 A0.03,0.03 135.4218442 0,0 3.9738744,-4.6774838 L4.1037797,-4.7247654 A0.06,0.06 250 0,1 4.1680633,-4.7094308 A5.714578,5.714578 316.8339217 0,1 4.2578249,-4.6114733 A0.06,0.06 318.1660783 0,1 4.2674985,-4.5460977 L4.2090747,-4.4208076 A0.03,0.03 205 0,0 4.2134252,-4.3886768 A5.534578,5.534578 319.5781558 0,1 4.2658103,-4.3262467 A0.03,0.03 140.4218442 0,0 4.2966976,-4.3163828 L4.4302294,-4.3521625 A0.06,0.06 255 0,1 4.4929319,-4.3312836 A5.714578,5.714578 321.8339217 0,1 4.5738144,-4.2258756 A0.06,0.06 323.1660783 0,1 4.5777533,-4.1599057 L4.5086321,-4.0401843 A0.03,0.03 210 0,0 4.5101657,-4.0077966 A5.534578,5.534578 324.5781558 0,1 4.5569103,-3.9410384 A0.03,0.03 145.4218442 0,0 4.5868203,-3.92852 L4.7229624,-3.9525256 A0.06,0.06 260 0,1 4.7836066,-3.9262612 A5.714578,5.714578 326.8339217 0,1 4.8549943,-3.8142049 A0.06,0.06 328.1660783 0,1 4.8531686,-3.7481428 L4.7738761,-3.6349012 A0.03,0.03 215 0,0 4.772581,-3.6025031 A5.534578,5.534578 329.5781558 0,1 4.8133294,-3.5319249 A0.03,0.03 150.4218442 0,0 4.8420345,-3.5168473 L4.9797508,-3.528896 A0.06,0.06 265 0,1 5.0378752,-3.497446 A5.714578,5.714578 331.8339217 0,1 5.0992249,-3.3795943 A0.06,0.06 333.1660783 0,1 5.0916484,-3.3139427 L5.002788,-3.2080429 A0.03,0.03 220 0,0 4.9986741,-3.1758809 A5.534578,5.534578 334.5781558 0,1 5.0331161,-3.1020198 A0.03,0.03 155.4218442 0,0 5.060398,-3.0844978 L5.1986403,-3.0844978 A0.06,0.06 270 0,1 5.2538024,-3.0481017 A5.714578,5.714578 336.8339217 0,1 5.3046473,-2.9253514 A0.06,0.06 338.1660783 0,1 5.2913777,-2.86061 L5.1936256,-2.7628578 A0.03,0.03 225 0,0 5.1867243,-2.7311768 A5.534578,5.534578 339.5781558 0,1 5.2145979,-2.6545949 A0.03,0.03 160.4218442 0,0 5.2402487,-2.6347618 L5.377965,-2.6227132 A0.06,0.06 275 0,1 5.4297451,-2.5816479 A5.714578,5.714578 341.8339217 0,1 5.4696981,-2.4549333 A0.06,0.06 343.1660783 0,1 5.4508364,-2.3915948 L5.3449366,-2.3027343 A0.03,0.03 230 0,0 5.3353004,-2.2717752 A5.534578,5.534578 344.5781558 0,1 5.3563933,-2.1930555 A0.03,0.03 165.4218442 0,0 5.380218,-2.1710623 L5.5163602,-2.1470567 A0.06,0.06 280 0,1 5.5643641,-2.1016347 A5.714578,5.714578 346.8339217 0,1 5.5931211,-1.9719202 A0.06,0.06 348.1660783 0,1 5.568811,-1.9104666 L5.4555695,-1.831174 A0.03,0.03 235 0,0 5.4432717,-1.8011726 A5.534578,5.534578 349.5781558 0,1 5.4574234,-1.720914 A0.03,0.03 170.4218442 0,0 5.4792406,-1.696928 L5.6127725,-1.6611483 A0.06,0.06 285 0,1 5.656635,-1.6117153 A5.714578,5.714578 351.8339217 0,1 5.6739772,-1.4799881 A0.06,0.06 353.1660783 0,1 5.6444035,-1.420887 L5.5246821,-1.3517659 A0.03,0.03 240 0,0 5.5098163,-1.3229505 A5.534578,5.534578 354.5781558 0,1 5.5169192,-1.2417639 A0.03,0.03 175.4218442 0,0 5.5365629,-1.2159677 L5.6664682,-1.168686 A0.06,0.06 290 0,1 5.7058554,-1.1156183 A5.714578,5.714578 356.8339217 0,1 5.7116509,-0.9828808 A0.06,0.06 358.1660783 0,1 5.6770387,-0.9265822 L5.5517486,-0.8681585 A0.03,0.03 245 0,0 5.5344279,-0.8407483 A5.534578,5.534578 359.5781558 0,1 5.5344279,-0.7592517 A0.03,0.03 180.4218442 0,0 5.5517486,-0.7318415 L5.6770387,-0.6734178 A0.06,0.06 295 0,1 5.7116509,-0.6171192 A5.714578,5.714578 1.8339217 0,1 5.7058554,-0.4843817 A0.06,0.06 3.1660783 0,1 5.6664682,-0.431314 L5.5365629,-0.3840323 A0.03,0.03 250 0,0 5.5169192,-0.3582361 A5.534578,5.534578 4.5781558 0,1 5.5098163,-0.2770495 A0.03,0.03 185.4218442 0,0 5.5246821,-0.2482341 L5.6444035,-0.179113 A0.06,0.06 300 0,1 5.6739772,-0.1200119 A5.714578,5.714578 6.8339217 0,1 5.656635,0.0117153 A0.06,0.06 8.1660783 0,1 5.6127725,0.0611483 L5.4792406,0.096928 A0.03,0.03 255 0,0 5.4574234,0.120914 A5.534578,5.534578 9.5781558 0,1 5.4432717,0.2011726 A0.03,0.03 190.4218442 0,0 5.4555695,0.231174 L5.568811,0.3104666 A0.06,0.06 305 0,1 5.5931211,0.3719202 A5.714578,5.714578 11.8339217 0,1 5.5643641,0.5016347 A0.06,0.06 13.1660783 0,1 5.5163602,0.5470567 L5.380218,0.5710623 A0.03,0.03 260 0,0 5.3563933,0.5930555 A5.534578,5.534578 14.5781558 0,1 5.3353004,0.6717752 A0.03,0.03 195.4218442 0,0 5.3449366,0.7027343 L5.4508364,0.7915948 A0.06,0.06 310 0,1 5.4696981,0.8549333 A5.714578,5.714578 16.8339217 0,1 5.4297451,0.9816479 A0.06,0.06 18.1660783 0,1 5.377965,1.0227132 L5.2402487,1.0347618 A0.03,0.03 265 0,0 5.2145979,1.0545949 A5.534578,5.534578 19.5781558 0,1 5.1867243,1.1311768 A0.03,0.03 200.4218442 0,0 5.1936256,1.1628578 L5.2913777,1.26061 A0.06,0.06 315 0,1 5.3046473,1.3253514 A5.714578,5.714578 21.8339217 0,1 5.2538024,1.4481017 A0.06,0.06 23.1660783 0,1 5.1986403,1.4844978 L5.060398,1.4844978 A0.03,0.03 270 0,0 5.0331161,1.5020198 A5.534578,5.534578 24.5781558 0,1 4.9986741,1.5758809 A0.03,0.03 205.4218442 0,0 5.002788,1.6080429 L5.0916484,1.7139427 A0.06,0.06 320 0,1 5.0992249,1.7795943 A5.714578,5.714578 26.8339217 0,1 5.0378752,1.897446 A0.06,0.06 28.1660783 0,1 4.9797508,1.928896 L4.8420345,1.9168473 A0.03,0.03 275 0,0 4.8133294,1.9319249 A5.534578,5.534578 29.5781558 0,1 4.772581,2.0025031 A0.03,0.03 210.4218442 0,0 4.7738761,2.0349012 L4.8531686,2.1481428 A0.06,0.06 325 0,1 4.8549943,2.2142049 A5.714578,5.714578 31.8339217 0,1 4.7836066,2.3262612 A0.06,0.06 33.1660783 0,1 4.7229624,2.3525256 L4.5868203,2.32852 A0.03,0.03 280 0,0 4.5569103,2.3410384 A5.534578,5.534578 34.5781558 0,1 4.5101657,2.4077966 A0.03,0.03 215.4218442 0,0 4.5086321,2.4401843 L4.5777533,2.5599057 A0.06,0.06 330 0,1 4.5738144,2.6258756 A5.714578,5.714578 36.8339217 0,1 4.4929319,2.7312836 A0.06,0.06 38.1660783 0,1 4.4302294,2.7521625 L4.2966976,2.7163828 A0.03,0.03 285 0,0 4.2658103,2.7262467 A5.534578,5.534578 39.5781558 0,1 4.2134252,2.7886768 A0.03,0.03 220.4218442 0,0 4.2090747,2.8208076 L4.2674985,2.9460977 A0.06,0.06 335 0,1 4.2578249,3.0114733 A5.714578,5.714578 41.8339217 0,1 4.1680633,3.1094308 A0.06,0.06 43.1660783 0,1 4.1037797,3.1247654 L3.9738744,3.0774838 A0.03,0.03 290 0,0 3.942245,3.0846181 A5.534578,5.534578 44.5781558 0,1 3.8846181,3.142245 A0.03,0.03 225.4218442 0,0 3.8774838,3.1738744 L3.9247654,3.3037797 A0.06,0.06 340 0,1 3.9094308,3.3680633 A5.714578,5.714578 46.8339217 0,1 3.8114733,3.4578249 A0.06,0.06 48.1660783 0,1 3.7460977,3.4674985 L3.6208076,3.4090747 A0.03,0.03 295 0,0 3.5886768,3.4134252 A5.534578,5.534578 49.5781558 0,1 3.5262467,3.4658103 A0.03,0.03 230.4218442 0,0 3.5163828,3.4966976 L3.5521625,3.6302294 A0.06,0.06 345 0,1 3.5312836,3.6929319 A5.714578,5.714578 51.8339217 0,1 3.4258756,3.7738144 A0.06,0.06 53.1660783 0,1 3.3599057,3.7777533 L3.2401843,3.7086321 A0.03,0.03 300 0,0 3.2077966,3.7101657 A5.534578,5.534578 54.5781558 0,1 3.1410384,3.7569103 A0.03,0.03 235.4218442 0,0 3.12852,3.7868203 L3.1525256,3.9229624 A0.06,0.06 350 0,1 3.1262612,3.9836066 A5.714578,5.714578 56.8339217 0,1 3.0142049,4.0549943 A0.06,0.06 58.1660783 0,1 2.9481428,4.0531686 L2.8349012,3.9738761 A0.03,0.03 305 0,0 2.8025031,3.972581 A5.534578,5.534578 59.5781558 0,1 2.7319249,4.0133294 A0.03,0.03 240.4218442 0,0 2.7168473,4.0420345 L2.728896,4.1797508 A0.06,0.06 355 0,1 2.697446,4.2378752 A5.714578,5.714578 61.8339217 0,1 2.5795943,4.2992249 A0.06,0.06 63.1660783 0,1 2.5139427,4.2916484 L2.4080429,4.202788 A0.03,0.03 310 0,0 2.3758809,4.1986741 A5.534578,5.534578 64.5781558 0,1 2.3020198,4.2331161 A0.03,0.03 245.4218442 0,0 2.2844978,4.260398 L2.2844978,4.3986403 A0.06,0.06 0 0,1 2.2481017,4.4538024 A5.714578,5.714578 66.8339217 0,1 2.1253514,4.5046473 A0.06,0.06 68.1660783 0,1 2.06061,4.4913777 L1.9628578,4.3936256 A0.03,0.03 315 0,0 1.9311768,4.3867243 A5.534578,5.534578 69.5781558 0,1 1.8545949,4.4145979 A0.03,0.03 250.4218442 0,0 1.8347618,4.4402487 L1.8227132,4.577965 A0.06,0.06 5 0,1 1.7816479,4.6297451 A5.714578,5.714578 71.8339217 0,1 1.6549333,4.6696981 A0.06,0.06 73.1660783 0,1 1.5915948,4.6508364 L1.5027343,4.5449366 A0.03,0.03 320 0,0 1.4717752,4.5353004 A5.534578,5.534578 74.5781558 0,1 1.3930555,4.5563933 A0.03,0.03 255.4218442 0,0 1.3710623,4.580218 L1.3470567,4.7163602 A0.06,0.06 10 0,1 1.3016347,4.7643641 A5.714578,5.714578 76.8339217 0,1 1.1719202,4.7931211 A0.06,0.06 78.1660783 0,1 1.1104666,4.768811 L1.031174,4.6555695 A0.03,0.03 325 0,0 1.0011726,4.6432717 A5.534578,5.534578 79.5781558 0,1 0.920914,4.6574234 A0.03,0.03 260.4218442 0,0 0.896928,4.6792406 L0.8611483,4.8127725 A0.06,0.06 15 0,1 0.8117153,4.856635 A5.714578,5.714578 81.8339217 0,1 0.6799881,4.8739772 A0.06,0.06 83.1660783 0,1 0.620887,4.8444035 L0.5517659,4.7246821 A0.03,0.03 330 0,0 0.5229505,4.7098163 A5.534578,5.534578 84.5781558 0,1 0.4417639,4.7169192 A0.03,0.03 265.4218442 0,0 0.4159677,4.7365629 L0.368686,4.8664682 A0.06,0.06 20 0,1 0.3156183,4.9058554 A5.714578,5.714578 86.8339217 0,1 0.1828808,4.9116509 A0.06,0.06 88.1660783 0,1 0.1265822,4.8770387 L0.0681585,4.7517486 A0.03,0.03 335 0,0 0.0407483,4.7344279 A5.534578,5.534578 89.5781558 0,1 -0.0407483,4.7344279 A0.03,0.03 270.4218442 0,0 -0.0681585,4.7517486 L-0.1265822,4.8770387 A0.06,0.06 25 0,1 -0.1828808,4.9116509 A5.714578,5.714578 91.8339217 0,1 -0.3156183,4.9058554 A0.06,0.06 93.1660783 0,1 -0.368686,4.8664682 L-0.4159677,4.7365629 A0.03,0.03 340 0,0 -0.4417639,4.7169192 A5.534578,5.534578 94.5781558 0,1 -0.5229505,4.7098163 A0.03,0.03 275.4218442 0,0 -0.5517659,4.7246821 L-0.620887,4.8444035 A0.06,0.06 30 0,1 -0.6799881,4.8739772 A5.714578,5.714578 96.8339217 0,1 -0.8117153,4.856635 A0.06,0.06 98.1660783 0,1 -0.8611483,4.8127725 L-0.896928,4.6792406 A0.03,0.03 345 0,0 -0.920914,4.6574234 A5.534578,5.534578 99.5781558 0,1 -1.0011726,4.6432717 A0.03,0.03 280.4218442 0,0 -1.031174,4.6555695 L-1.1104666,4.768811 A0.06,0.06 35 0,1 -1.1719202,4.7931211 A5.714578,5.714578 101.8339217 0,1 -1.3016347,4.7643641 A0.06,0.06 103.1660783 0,1 -1.3470567,4.7163602 L-1.3710623,4.580218 A0.03,0.03 350 0,0 -1.3930555,4.5563933 A5.534578,5.534578 104.5781558 0,1 -1.4717752,4.5353004 A0.03,0.03 285.4218442 0,0 -1.5027343,4.5449366 L-1.5915948,4.6508364 A0.06,0.06 40 0,1 -1.6549333,4.6696981 A5.714578,5.714578 106.8339217 0,1 -1.7816479,4.6297451 A0.06,0.06 108.1660783 0,1 -1.8227132,4.577965 L-1.8347618,4.4402487 A0.03,0.03 355 0,0 -1.8545949,4.4145979 A5.534578,5.534578 109.5781558 0,1 -1.9311768,4.3867243 A0.03,0.03 290.4218442 0,0 -1.9628578,4.3936256 L-2.06061,4.4913777 A0.06,0.06 45 0,1 -2.1253514,4.5046473 A5.714578,5.714578 111.8339217 0,1 -2.2481017,4.4538024 A0.06,0.06 113.1660783 0,1 -2.2844978,4.3986403 L-2.2844978,4.260398 A0.03,0.03 0 0,0 -2.3020198,4.2331161 A5.534578,5.534578 114.5781558 0,1 -2.3758809,4.1986741 A0.03,0.03 295.4218442 0,0 -2.4080429,4.202788 L-2.5139427,4.2916484 A0.06,0.06 50 0,1 -2.5795943,4.2992249 A5.714578,5.714578 116.8339217 0,1 -2.697446,4.2378752 A0.06,0.06 118.1660783 0,1 -2.728896,4.1797508 L-2.7168473,4.0420345 A0.03,0.03 5 0,0 -2.7319249,4.0133294 A5.534578,5.534578 119.5781558 0,1 -2.8025031,3.972581 A0.03,0.03 300.4218442 0,0 -2.8349012,3.9738761 L-2.9481428,4.0531686 A0.06,0.06 55 0,1 -3.0142049,4.0549943 A5.714578,5.714578 121.8339217 0,1 -3.1262612,3.9836066 A0.06,0.06 123.1660783 0,1 -3.1525256,3.9229624 L-3.12852,3.7868203 A0.03,0.03 10 0,0 -3.1410384,3.7569103 A5.534578,5.534578 124.5781558 0,1 -3.2077966,3.7101657 A0.03,0.03 305.4218442 0,0 -3.2401843,3.7086321 L-3.3599057,3.7777533 A0.06,0.06 60 0,1 -3.4258756,3.7738144 A5.714578,5.714578 126.8339217 0,1 -3.5312836,3.6929319 A0.06,0.06 128.1660783 0,1 -3.5521625,3.6302294 L-3.5163828,3.4966976 A0.03,0.03 15 0,0 -3.5262467,3.4658103 A5.534578,5.534578 129.5781558 0,1 -3.5886768,3.4134252 A0.03,0.03 310.4218442 0,0 -3.6208076,3.4090747z" transform="matrix(1,0,0,-1,5.7116816,4.9116816)" fill="rgb(0,0,0)" shaper:cutDepth="0.006" stroke-linecap="round" stroke-linejoin="round" /><path d="M-0.4,0.5266499 A0.3,0.3 0 0,0 -0.56,0.2613199 A1.2,1.2 117.8181393 0,1 -1.0613199,-0.24 A0.3,0.3 332.1818607 0,0 -1.3266499,-0.4 L-4.64758,-0.4 A0.3,0.3 270 0,0 -4.9442341,-0.0553191 A5,5 171.4347189 0,0 -0.7446809,4.1442341 A0.3,0.3 98.5652811 0,0 -0.4,3.84758 L-0.4,0.5266499z" transform="matrix(1,0,0,-1,5.7116816,4.9116816)" fill="rgb(255,255,255)" stroke="rgb(0,0,0)" stroke-width="0.0010cm" stroke-linecap="round" stroke-linejoin="round" shaper:cutDepth="0.006" /><path d="M-0.4,-0.8 a0.4,0.4 0 1,1 0.8,0 a0.4,0.4 0 1,1 -0.8,0z" transform="matrix(1,0,0,-1,5.7116816,4.9116816)" fill="rgb(255,255,255)" stroke="rgb(0,0,0)" stroke-width="0.0010cm" stroke-linecap="round" stroke-linejoin="round" shaper:cutDepth="0.006" /><path d="M-0.15,-5.8 a0.15,0.15 0 1,1 0.3,0 a0.15,0.15 0 1,1 -0.3,0z" transform="matrix(1,0,0,-1,5.7116816,4.9116816)" fill="rgb(255,255,255)" stroke="rgb(0,0,0)" stroke-width="0.0010cm" stroke-linecap="round" stroke-linejoin="round" shaper:cutDepth="0.006" /><path d="M1.85,-0.8 a0.15,0.15 0 1,1 0.3,0 a0.15,0.15 0 1,1 -0.3,0z" transform="matrix(1,0,0,-1,5.7116816,4.9116816)" fill="rgb(255,255,255)" stroke="rgb(0,0,0)" stroke-width="0.0010cm" stroke-linecap="round" stroke-linejoin="round" shaper:cutDepth="0.006" /><path d="M-0.15,4.2 a0.15,0.15 0 1,1 0.3,0 a0.15,0.15 0 1,1 -0.3,0z" transform="matrix(1,0,0,-1,5.7116816,4.9116816)" fill="rgb(255,255,255)" stroke="rgb(0,0,0)" stroke-width="0.0010cm" stroke-linecap="round" stroke-linejoin="round" shaper:cutDepth="0.006" /><path d="M-1.3266499,-1.2 A0.3,0.3 90 0,0 -1.0613199,-1.36 A1.2,1.2 207.8181393 0,1 -0.56,-1.8613199 A0.3,0.3 62.1818607 0,0 -0.4,-2.1266499 L-0.4,-5.44758 A0.3,0.3 0 0,0 -0.7446809,-5.7442341 A5,5 261.4347189 0,0 -4.9442341,-1.5446809 A0.3,0.3 188.5652811 0,0 -4.64758,-1.2 L-1.3266499,-1.2z" transform="matrix(1,0,0,-1,5.7116816,4.9116816)" fill="rgb(255,255,255)" stroke="rgb(0,0,0)" stroke-width="0.0010cm" stroke-linecap="round" stroke-linejoin="round" shaper:cutDepth="0.006" /><path d="M1.3266499,-0.4 A0.3,0.3 270 0,0 1.0613199,-0.24 A1.2,1.2 27.8181393 0,1 0.56,0.2613199 A0.3,0.3 242.1818607 0,0 0.4,0.5266499 L0.4,3.84758 A0.3,0.3 180 0,0 0.7446809,4.1442341 A5,5 81.4347189 0,0 4.9442341,-0.0553191 A0.3,0.3 8.5652811 0,0 4.64758,-0.4 L1.3266499,-0.4z" transform="matrix(1,0,0,-1,5.7116816,4.9116816)" fill="rgb(255,255,255)" stroke="rgb(0,0,0)" stroke-width="0.0010cm" stroke-linecap="round" stroke-linejoin="round" shaper:cutDepth="0.006" /><path d="M-2.15,-0.8 a0.15,0.15 0 1,1 0.3,0 a0.15,0.15 0 1,1 -0.3,0z" transform="matrix(1,0,0,-1,5.7116816,4.9116816)" fill="rgb(255,255,255)" stroke="rgb(0,0,0)" stroke-width="0.0010cm" stroke-linecap="round" stroke-linejoin="round" shaper:cutDepth="0.006" /><path d="M-0.15,-2.8 a0.15,0.15 0 1,1 0.3,0 a0.15,0.15 0 1,1 -0.3,0z" transform="matrix(1,0,0,-1,5.7116816,4.9116816)" fill="rgb(255,255,255)" stroke="rgb(0,0,0)" stroke-width="0.0010cm" stroke-linecap="round" stroke-linejoin="round" shaper:cutDepth="0.006" /><path d="M4.85,-0.8 a0.15,0.15 0 1,1 0.3,0 a0.15,0.15 0 1,1 -0.3,0z" transform="matrix(1,0,0,-1,5.7116816,4.9116816)" fill="rgb(255,255,255)" stroke="rgb(0,0,0)" stroke-width="0.0010cm" stroke-linecap="round" stroke-linejoin="round" shaper:cutDepth="0.006" /><path d="M-0.15,1.2 a0.15,0.15 0 1,1 0.3,0 a0.15,0.15 0 1,1 -0.3,0z" transform="matrix(1,0,0,-1,5.7116816,4.9116816)" fill="rgb(255,255,255)" stroke="rgb(0,0,0)" stroke-width="0.0010cm" stroke-linecap="round" stroke-linejoin="round" shaper:cutDepth="0.006" /><path d="M-5.15,-0.8 a0.15,0.15 0 1,1 0.3,0 a0.15,0.15 0 1,1 -0.3,0z" transform="matrix(1,0,0,-1,5.7116816,4.9116816)" fill="rgb(255,255,255)" stroke="rgb(0,0,0)" stroke-width="0.0010cm" stroke-linecap="round" stroke-linejoin="round" shaper:cutDepth="0.006" /><path d="M0.4,-2.1266499 A0.3,0.3 180 0,0 0.56,-1.8613199 A1.2,1.2 297.8181393 0,1 1.0613199,-1.36 A0.3,0.3 152.1818607 0,0 1.3266499,-1.2 L4.64758,-1.2 A0.3,0.3 90 0,0 4.9442341,-1.5446809 A5,5 351.4347189 0,0 0.7446809,-5.7442341 A0.3,0.3 278.5652811 0,0 0.4,-5.44758 L0.4,-2.1266499z" transform="matrix(1,0,0,-1,5.7116816,4.9116816)" fill="rgb(255,255,255)" stroke="rgb(0,0,0)" stroke-width="0.0010cm" stroke-linecap="round" stroke-linejoin="round" shaper:cutDepth="0.006" /></svg>